<mxfile host="app.diagrams.net" modified="2022-05-30T13:41:41.029Z" agent="5.0 (X11; Linux x86_64) AppleWebKit/537.36 (KHTML, like Gecko) Chrome/101.0.4951.64 Safari/537.36" etag="YmFqEVb6_7Jq8tY5NmGr" version="18.1.3" type="github">
  <diagram id="fm7U9SSoICCijSZEIIOG" name="Page-1">
    <mxGraphModel dx="1422" dy="800" grid="1" gridSize="10" guides="1" tooltips="1" connect="1" arrows="1" fold="1" page="1" pageScale="1" pageWidth="827" pageHeight="1169" math="0" shadow="0">
      <root>
        <mxCell id="0" />
        <mxCell id="1" parent="0" />
        <mxCell id="n0n8YimcOrlQ7607udr9-1" value="Usager&lt;br&gt;" style="shape=umlActor;verticalLabelPosition=bottom;verticalAlign=top;html=1;outlineConnect=0;" vertex="1" parent="1">
          <mxGeometry x="255" y="40" width="30" height="60" as="geometry" />
        </mxCell>
        <mxCell id="n0n8YimcOrlQ7607udr9-6" value="Futur lecteur" style="shape=umlActor;verticalLabelPosition=bottom;verticalAlign=top;html=1;outlineConnect=0;" vertex="1" parent="1">
          <mxGeometry x="77.5" y="40" width="30" height="60" as="geometry" />
        </mxCell>
        <mxCell id="n0n8YimcOrlQ7607udr9-8" value="Lecteur" style="shape=umlActor;verticalLabelPosition=bottom;verticalAlign=top;html=1;outlineConnect=0;" vertex="1" parent="1">
          <mxGeometry x="414" y="40" width="30" height="60" as="geometry" />
        </mxCell>
        <mxCell id="n0n8YimcOrlQ7607udr9-9" value="Employés&lt;br&gt;" style="shape=umlActor;verticalLabelPosition=bottom;verticalAlign=top;html=1;outlineConnect=0;" vertex="1" parent="1">
          <mxGeometry x="570" y="40" width="30" height="60" as="geometry" />
        </mxCell>
        <mxCell id="n0n8YimcOrlQ7607udr9-10" value="Bénévoles&lt;br&gt;" style="shape=umlActor;verticalLabelPosition=bottom;verticalAlign=top;html=1;outlineConnect=0;" vertex="1" parent="1">
          <mxGeometry x="730" y="40" width="30" height="60" as="geometry" />
        </mxCell>
        <mxCell id="n0n8YimcOrlQ7607udr9-12" value="Futur Client&lt;br&gt;PEUT ÊTRE :&lt;br&gt;Usager" style="text;html=1;strokeColor=none;fillColor=none;align=center;verticalAlign=middle;whiteSpace=wrap;rounded=0;" vertex="1" parent="1">
          <mxGeometry x="50" y="160" width="85" height="30" as="geometry" />
        </mxCell>
        <mxCell id="n0n8YimcOrlQ7607udr9-14" value="Usager&lt;br&gt;PEUT ÊTRE :&lt;br&gt;Futur lecteur&lt;br&gt;Lecteur&lt;br&gt;Employés&lt;br&gt;Bénévoles" style="text;html=1;strokeColor=none;fillColor=none;align=center;verticalAlign=middle;whiteSpace=wrap;rounded=0;" vertex="1" parent="1">
          <mxGeometry x="210" y="160" width="120" height="30" as="geometry" />
        </mxCell>
        <mxCell id="n0n8YimcOrlQ7607udr9-15" value="Client&lt;br&gt;PEUT ÊTRE :&lt;br&gt;Usager&lt;br&gt;Employés&lt;br&gt;Bénévoles" style="text;html=1;strokeColor=none;fillColor=none;align=center;verticalAlign=middle;whiteSpace=wrap;rounded=0;" vertex="1" parent="1">
          <mxGeometry x="384" y="160" width="90" height="30" as="geometry" />
        </mxCell>
        <mxCell id="n0n8YimcOrlQ7607udr9-16" value="Employés&lt;br&gt;PEUT ÊTRE :&lt;br&gt;Usager&lt;br&gt;Lecteur" style="text;html=1;strokeColor=none;fillColor=none;align=center;verticalAlign=middle;whiteSpace=wrap;rounded=0;" vertex="1" parent="1">
          <mxGeometry x="540" y="160" width="90" height="30" as="geometry" />
        </mxCell>
        <mxCell id="n0n8YimcOrlQ7607udr9-17" value="Bénévoles&lt;br&gt;PEUT ÊTRE :&lt;br&gt;&amp;nbsp;Usager&lt;br&gt;Lecteur" style="text;html=1;strokeColor=none;fillColor=none;align=center;verticalAlign=middle;whiteSpace=wrap;rounded=0;" vertex="1" parent="1">
          <mxGeometry x="695" y="161" width="100" height="30" as="geometry" />
        </mxCell>
        <mxCell id="n0n8YimcOrlQ7607udr9-19" value="Enregistrement&amp;nbsp; des emprunts" style="text;html=1;strokeColor=none;fillColor=none;align=center;verticalAlign=middle;whiteSpace=wrap;rounded=0;" vertex="1" parent="1">
          <mxGeometry x="670" y="250" width="150" height="30" as="geometry" />
        </mxCell>
        <mxCell id="n0n8YimcOrlQ7607udr9-21" value="Enregistrement des emprunts&lt;br&gt;Enregistrement des nouveaux documents" style="text;html=1;strokeColor=none;fillColor=none;align=center;verticalAlign=middle;whiteSpace=wrap;rounded=0;" vertex="1" parent="1">
          <mxGeometry x="495" y="250" width="180" height="30" as="geometry" />
        </mxCell>
        <mxCell id="n0n8YimcOrlQ7607udr9-22" value="Possède une carte d&#39;électeur&lt;br&gt;Peut emprunter" style="text;html=1;strokeColor=none;fillColor=none;align=center;verticalAlign=middle;whiteSpace=wrap;rounded=0;" vertex="1" parent="1">
          <mxGeometry x="359" y="250" width="140" height="30" as="geometry" />
        </mxCell>
        <mxCell id="n0n8YimcOrlQ7607udr9-25" style="edgeStyle=orthogonalEdgeStyle;rounded=0;orthogonalLoop=1;jettySize=auto;html=1;" edge="1" parent="1" source="n0n8YimcOrlQ7607udr9-23" target="n0n8YimcOrlQ7607udr9-24">
          <mxGeometry relative="1" as="geometry">
            <Array as="points">
              <mxPoint x="93" y="410" />
              <mxPoint x="340" y="410" />
            </Array>
          </mxGeometry>
        </mxCell>
        <mxCell id="n0n8YimcOrlQ7607udr9-27" style="edgeStyle=orthogonalEdgeStyle;rounded=0;orthogonalLoop=1;jettySize=auto;html=1;" edge="1" parent="1" source="n0n8YimcOrlQ7607udr9-23" target="n0n8YimcOrlQ7607udr9-26">
          <mxGeometry relative="1" as="geometry">
            <Array as="points">
              <mxPoint x="150" y="480" />
              <mxPoint x="150" y="480" />
            </Array>
          </mxGeometry>
        </mxCell>
        <mxCell id="n0n8YimcOrlQ7607udr9-35" style="edgeStyle=orthogonalEdgeStyle;rounded=0;orthogonalLoop=1;jettySize=auto;html=1;entryX=-0.025;entryY=0.588;entryDx=0;entryDy=0;entryPerimeter=0;" edge="1" parent="1" source="n0n8YimcOrlQ7607udr9-23" target="n0n8YimcOrlQ7607udr9-34">
          <mxGeometry relative="1" as="geometry">
            <Array as="points">
              <mxPoint x="93" y="540" />
              <mxPoint x="340" y="540" />
              <mxPoint x="340" y="607" />
            </Array>
          </mxGeometry>
        </mxCell>
        <mxCell id="n0n8YimcOrlQ7607udr9-23" value="Usager&lt;br&gt;" style="shape=umlActor;verticalLabelPosition=bottom;verticalAlign=top;html=1;outlineConnect=0;" vertex="1" parent="1">
          <mxGeometry x="77.5" y="470" width="30" height="60" as="geometry" />
        </mxCell>
        <mxCell id="n0n8YimcOrlQ7607udr9-24" value="Lecture Livre/journaux" style="ellipse;whiteSpace=wrap;html=1;" vertex="1" parent="1">
          <mxGeometry x="280" y="320" width="120" height="80" as="geometry" />
        </mxCell>
        <mxCell id="n0n8YimcOrlQ7607udr9-26" value="Lecture de Microfilms" style="ellipse;whiteSpace=wrap;html=1;" vertex="1" parent="1">
          <mxGeometry x="280" y="440" width="120" height="80" as="geometry" />
        </mxCell>
        <mxCell id="n0n8YimcOrlQ7607udr9-33" style="edgeStyle=orthogonalEdgeStyle;rounded=0;orthogonalLoop=1;jettySize=auto;html=1;" edge="1" parent="1" source="n0n8YimcOrlQ7607udr9-30" target="n0n8YimcOrlQ7607udr9-23">
          <mxGeometry relative="1" as="geometry" />
        </mxCell>
        <mxCell id="n0n8YimcOrlQ7607udr9-30" value="Lecteur enregistré&lt;br&gt;" style="shape=umlActor;verticalLabelPosition=bottom;verticalAlign=top;html=1;outlineConnect=0;" vertex="1" parent="1">
          <mxGeometry x="77.5" y="670" width="30" height="60" as="geometry" />
        </mxCell>
        <mxCell id="n0n8YimcOrlQ7607udr9-34" value="Consultation de documents" style="ellipse;whiteSpace=wrap;html=1;" vertex="1" parent="1">
          <mxGeometry x="280" y="560" width="120" height="80" as="geometry" />
        </mxCell>
      </root>
    </mxGraphModel>
  </diagram>
</mxfile>
